<svg width="1200" height="1200" viewBox="0 0 1200 1200" fill="none" xmlns="http://www.w3.org/2000/svg">
<path d="M120.446 322.845L599.97 44.9304L1079.55 322.846V877.154L599.97 1155.07L120.446 877.155V322.845Z" stroke="black" stroke-width="77.7483"/>
<path d="M258.404 728.643V469.559H360.62C380.271 469.559 397.012 473.312 410.843 480.818C424.675 488.24 435.217 498.571 442.47 511.812C449.807 524.969 453.476 540.15 453.476 557.354C453.476 574.559 449.765 589.74 442.343 602.896C434.922 616.053 424.169 626.3 410.084 633.637C396.084 640.975 379.132 644.643 359.229 644.643H294.078V600.746H350.374C360.916 600.746 369.602 598.933 376.434 595.306C383.349 591.595 388.494 586.493 391.867 579.999C395.325 573.421 397.054 565.872 397.054 557.354C397.054 548.752 395.325 541.246 391.867 534.836C388.494 528.342 383.349 523.324 376.434 519.782C369.518 516.156 360.747 514.342 350.121 514.342H313.181V728.643H258.404ZM489.055 728.643V469.559H543.832V576.457H655.031V469.559H709.681V728.643H655.031V621.619H543.832V728.643H489.055ZM754.844 728.643V469.559H857.06C876.711 469.559 893.452 473.312 907.283 480.818C921.115 488.24 931.657 498.571 938.91 511.812C946.247 524.969 949.916 540.15 949.916 557.354C949.916 574.559 946.205 589.74 938.783 602.896C931.362 616.053 920.609 626.3 906.524 633.637C892.524 640.975 875.572 644.643 855.669 644.643H790.518V600.746H846.814C857.356 600.746 866.042 598.933 872.874 595.306C879.789 591.595 884.934 586.493 888.307 579.999C891.765 573.421 893.494 565.872 893.494 557.354C893.494 548.752 891.765 541.246 888.307 534.836C884.934 528.342 879.789 523.324 872.874 519.782C865.958 516.156 857.187 514.342 846.561 514.342H809.621V728.643H754.844Z" fill="black"/>
</svg>
