<svg width="2600" height="1200" viewBox="0 0 2600 1200" fill="none" xmlns="http://www.w3.org/2000/svg">
<path d="M329.081 599.458C329.081 627.711 323.726 651.747 313.015 671.566C302.389 691.386 287.883 706.524 269.497 716.982C251.196 727.355 230.618 732.542 207.762 732.542C184.738 732.542 164.076 727.313 145.775 716.855C127.473 706.398 113.01 691.259 102.383 671.44C91.7566 651.621 86.4434 627.627 86.4434 599.458C86.4434 571.205 91.7566 547.169 102.383 527.35C113.01 507.531 127.473 492.434 145.775 482.061C164.076 471.603 184.738 466.374 207.762 466.374C230.618 466.374 251.196 471.603 269.497 482.061C287.883 492.434 302.389 507.531 313.015 527.35C323.726 547.169 329.081 571.205 329.081 599.458ZM273.545 599.458C273.545 581.157 270.804 565.723 265.322 553.157C259.925 540.591 252.292 531.061 242.425 524.567C232.557 518.073 221.003 514.826 207.762 514.826C194.521 514.826 182.967 518.073 173.1 524.567C163.232 531.061 155.558 540.591 150.076 553.157C144.678 565.723 141.979 581.157 141.979 599.458C141.979 617.759 144.678 633.193 150.076 645.759C155.558 658.325 163.232 667.856 173.1 674.35C182.967 680.843 194.521 684.09 207.762 684.09C221.003 684.09 232.557 680.843 242.425 674.35C252.292 667.856 259.925 658.325 265.322 645.759C270.804 633.193 273.545 617.759 273.545 599.458ZM368.646 801.867V534.687H421.778V567.326H424.182C426.543 562.097 429.959 556.784 434.429 551.386C438.983 545.904 444.887 541.35 452.14 537.723C459.477 534.013 468.585 532.157 479.465 532.157C493.634 532.157 506.706 535.868 518.682 543.29C530.658 550.627 540.23 561.717 547.399 576.561C554.567 591.32 558.151 609.832 558.151 632.097C558.151 653.771 554.652 672.072 547.652 687C540.736 701.843 531.29 713.102 519.314 720.777C507.423 728.367 494.097 732.163 479.338 732.163C468.881 732.163 459.983 730.434 452.646 726.976C445.393 723.518 439.447 719.175 434.808 713.946C430.17 708.633 426.628 703.277 424.182 697.88H422.537V801.867H368.646ZM421.399 631.844C421.399 643.398 423.001 653.476 426.206 662.078C429.411 670.681 434.049 677.386 440.122 682.193C446.194 686.916 453.573 689.277 462.26 689.277C471.031 689.277 478.453 686.874 484.525 682.066C490.597 677.175 495.194 670.428 498.314 661.825C501.519 653.139 503.122 643.145 503.122 631.844C503.122 620.627 501.561 610.759 498.441 602.241C495.32 593.723 490.724 587.061 484.652 582.253C478.579 577.446 471.116 575.043 462.26 575.043C453.489 575.043 446.067 577.362 439.995 582C434.007 586.639 429.411 593.217 426.206 601.735C423.001 610.253 421.399 620.289 421.399 631.844ZM682.633 732.795C662.645 732.795 645.44 728.747 631.019 720.651C616.681 712.47 605.633 700.916 597.874 685.988C590.115 670.976 586.236 653.223 586.236 632.729C586.236 612.741 590.115 595.199 597.874 580.103C605.633 565.006 616.555 553.241 630.639 544.808C644.808 536.374 661.422 532.157 680.482 532.157C693.302 532.157 705.235 534.223 716.284 538.356C727.416 542.404 737.115 548.519 745.38 556.699C753.729 564.88 760.223 575.169 764.862 587.567C769.5 599.88 771.82 614.301 771.82 630.832V645.633H607.742V612.235H721.091C721.091 604.476 719.404 597.603 716.031 591.615C712.657 585.627 707.976 580.946 701.988 577.573C696.085 574.115 689.211 572.386 681.368 572.386C673.187 572.386 665.934 574.284 659.609 578.079C653.368 581.79 648.477 586.808 644.934 593.133C641.392 599.374 639.579 606.332 639.495 614.006V645.759C639.495 655.374 641.266 663.681 644.808 670.681C648.434 677.681 653.537 683.078 660.115 686.874C666.693 690.669 674.495 692.566 683.519 692.566C689.507 692.566 694.988 691.723 699.964 690.036C704.94 688.35 709.199 685.819 712.741 682.446C716.284 679.072 718.982 674.94 720.838 670.048L770.681 673.337C768.151 685.313 762.964 695.771 755.121 704.711C747.362 713.566 737.326 720.482 725.012 725.458C712.784 730.349 698.657 732.795 682.633 732.795ZM860.88 616.663V729H806.988V534.687H858.35V568.97H860.627C864.928 557.669 872.139 548.729 882.259 542.151C892.38 535.488 904.651 532.157 919.072 532.157C932.566 532.157 944.331 535.109 954.367 541.013C964.403 546.916 972.205 555.35 977.771 566.314C983.337 577.193 986.12 590.181 986.12 605.277V729H932.229V614.892C932.313 603 929.277 593.723 923.12 587.061C916.964 580.314 908.488 576.94 897.693 576.94C890.44 576.94 884.03 578.5 878.464 581.621C872.982 584.741 868.681 589.296 865.56 595.283C862.524 601.187 860.964 608.314 860.88 616.663ZM1074.26 729H1015.56L1105 469.916H1175.59L1264.91 729H1206.21L1141.31 529.121H1139.29L1074.26 729ZM1070.59 627.163H1209.24V669.922H1070.59V627.163ZM1350.87 469.916V729H1296.09V469.916H1350.87Z" fill="black"/>
<path d="M1520.45 322.845L1999.97 44.9304L2479.55 322.846V877.154L1999.97 1155.07L1520.45 877.155V322.845Z" stroke="black" stroke-width="77.7483"/>
<path d="M1658.4 728.643V469.559H1760.62C1780.27 469.559 1797.01 473.312 1810.84 480.818C1824.67 488.24 1835.22 498.571 1842.47 511.812C1849.81 524.969 1853.48 540.15 1853.48 557.354C1853.48 574.559 1849.76 589.74 1842.34 602.896C1834.92 616.053 1824.17 626.3 1810.08 633.637C1796.08 640.975 1779.13 644.643 1759.23 644.643H1694.08V600.746H1750.37C1760.92 600.746 1769.6 598.933 1776.43 595.306C1783.35 591.595 1788.49 586.493 1791.87 579.999C1795.33 573.421 1797.05 565.872 1797.05 557.354C1797.05 548.752 1795.33 541.246 1791.87 534.836C1788.49 528.342 1783.35 523.324 1776.43 519.782C1769.52 516.156 1760.75 514.342 1750.12 514.342H1713.18V728.643H1658.4ZM1889.06 728.643V469.559H1943.83V576.457H2055.03V469.559H2109.68V728.643H2055.03V621.619H1943.83V728.643H1889.06ZM2154.84 728.643V469.559H2257.06C2276.71 469.559 2293.45 473.312 2307.28 480.818C2321.11 488.24 2331.66 498.571 2338.91 511.812C2346.25 524.969 2349.92 540.15 2349.92 557.354C2349.92 574.559 2346.2 589.74 2338.78 602.896C2331.36 616.053 2320.61 626.3 2306.52 633.637C2292.52 640.975 2275.57 644.643 2255.67 644.643H2190.52V600.746H2246.81C2257.36 600.746 2266.04 598.933 2272.87 595.306C2279.79 591.595 2284.93 586.493 2288.31 579.999C2291.77 573.421 2293.49 565.872 2293.49 557.354C2293.49 548.752 2291.77 541.246 2288.31 534.836C2284.93 528.342 2279.79 523.324 2272.87 519.782C2265.96 516.156 2257.19 514.342 2246.56 514.342H2209.62V728.643H2154.84Z" fill="black"/>
</svg>
